<?xml version="1.0" standalone="no"?>
<!DOCTYPE svg PUBLIC "-//W3C//DTD SVG 20010904//EN"
 "http://www.w3.org/TR/2001/REC-SVG-20010904/DTD/svg10.dtd">
<svg version="1.0" xmlns="http://www.w3.org/2000/svg"
 width="1024.000000pt" height="1024.000000pt" viewBox="0 0 1024.000000 1024.000000"
 preserveAspectRatio="xMidYMid meet">

<g transform="translate(0.000000,1024.000000) scale(0.100000,-0.100000)"
fill="#000000" stroke="none">
<path d="M3251 8198 c-69 -20 -125 -96 -381 -523 -387 -647 -378 -633 -515
-770 -160 -160 -222 -268 -246 -427 -23 -159 23 -298 143 -424 155 -163 367
-260 1136 -518 671 -226 904 -315 1537 -591 527 -230 793 -315 1185 -379 581
-96 1162 -38 1575 158 258 122 412 293 461 512 13 59 15 104 11 193 -8 182
-52 287 -167 401 -104 102 -265 180 -620 300 -403 136 -571 208 -690 299 -36
27 -133 118 -215 203 -121 122 -151 159 -153 183 -3 39 -49 105 -92 130 -19
11 -73 60 -121 109 -64 67 -88 99 -97 131 -14 54 -88 125 -131 125 -23 0 -44
16 -111 87 -46 48 -91 106 -101 131 -29 67 -56 100 -102 124 -25 12 -102 82
-185 169 -167 172 -271 260 -362 303 -60 29 -73 31 -170 31 -97 0 -109 -2
-160 -30 -89 -48 -185 -153 -273 -301 -43 -72 -91 -145 -107 -163 -97 -106
-364 -134 -513 -53 -61 33 -138 114 -172 183 -16 30 -45 101 -67 158 -62 169
-107 229 -186 251 -44 12 -65 12 -111 -2z m1659 -303 c71 -25 159 -96 283
-228 l118 -126 -38 -21 c-21 -11 -46 -26 -55 -33 -20 -13 -17 -15 -104 56 -70
57 -196 121 -279 142 -32 8 -92 15 -132 15 l-73 0 21 41 c27 54 106 138 144
155 39 17 64 17 115 -1z m-1580 -77 c77 -214 210 -380 363 -452 88 -41 139
-54 248 -62 150 -11 258 12 489 101 120 47 261 59 351 30 61 -20 154 -68 185
-97 21 -19 21 -19 2 -56 -26 -51 -19 -106 20 -144 36 -37 99 -40 160 -9 23 12
43 21 45 21 7 0 93 -83 136 -132 l42 -46 -21 -34 c-50 -82 4 -188 97 -188 15
0 52 12 81 27 l53 27 81 -82 c78 -77 81 -82 70 -107 -22 -48 -15 -101 19 -139
39 -45 84 -55 145 -31 l44 17 76 -71 c126 -118 214 -162 409 -205 153 -34 176
-41 435 -141 118 -46 281 -106 362 -134 166 -58 364 -133 405 -154 l27 -15
-67 -21 c-179 -55 -355 -51 -837 20 -506 75 -714 56 -935 -85 -31 -20 -78 -56
-103 -80 -26 -24 -57 -48 -69 -55 -61 -31 -72 -26 -843 386 -113 60 -347 183
-520 273 -567 293 -548 282 -573 343 -8 18 -26 79 -41 137 -59 228 -118 370
-214 513 -58 86 -200 236 -286 302 -36 28 -65 55 -63 61 4 18 191 344 198 344
3 0 17 -28 29 -62z m2254 -565 c86 -91 86 -94 21 -129 l-35 -19 -86 86 -86 86
49 31 c26 18 50 31 53 29 3 -1 41 -39 84 -84z m-2491 -43 c39 -36 92 -94 119
-130 71 -93 152 -265 183 -389 14 -57 25 -105 23 -106 -2 -2 -154 62 -338 142
-184 79 -345 147 -357 150 -19 5 -12 20 94 196 63 106 121 202 129 215 15 22
15 22 46 5 17 -10 63 -47 101 -83z m2821 -309 c71 -71 77 -89 38 -110 -17 -9
-30 0 -92 66 l-73 76 23 19 c12 10 25 18 29 18 4 0 37 -31 75 -69z m-3159
-299 c77 -33 228 -97 335 -142 692 -293 953 -420 1845 -895 611 -326 680 -354
1140 -468 397 -99 638 -131 990 -131 290 -1 383 9 589 60 55 13 101 22 103 20
9 -9 -160 -100 -254 -136 -196 -77 -408 -121 -683 -141 -309 -22 -624 9 -975
97 -292 73 -416 119 -940 349 -679 298 -859 367 -1665 640 -643 218 -808 306
-877 465 -37 86 8 231 102 327 l52 54 49 -19 c27 -11 112 -47 189 -80z m3488
-54 c37 -42 67 -79 67 -83 0 -12 -42 17 -111 76 -58 50 -68 63 -58 75 19 23
31 15 102 -68z m1661 -1006 c9 -26 19 -67 22 -92 5 -40 3 -50 -21 -78 -45 -53
-121 -83 -310 -121 -363 -72 -779 -58 -1265 45 -177 38 -430 103 -443 114 -15
13 114 89 196 116 73 24 97 27 227 27 143 0 174 -3 525 -60 150 -24 199 -27
415 -27 202 -1 258 2 320 17 107 25 218 64 265 91 22 12 43 21 47 19 3 -2 14
-25 22 -51z"/>
<path d="M4698 6691 c-127 -65 -245 -129 -261 -142 -24 -20 -30 -34 -34 -76
-5 -50 -4 -54 30 -88 56 -56 90 -51 267 39 361 185 370 191 370 265 0 26 -7
56 -16 69 -19 28 -65 52 -99 52 -14 0 -130 -53 -257 -119z"/>
<path d="M5330 6485 c-19 -7 -69 -32 -110 -55 -41 -23 -104 -58 -140 -78 -157
-85 -190 -116 -190 -177 0 -34 24 -80 52 -99 51 -36 91 -23 308 98 230 127
247 144 236 219 -8 46 -19 64 -56 90 -29 20 -52 20 -100 2z"/>
<path d="M5624 4145 c-131 -28 -229 -97 -276 -193 -20 -40 -23 -62 -23 -157 0
-101 2 -114 27 -155 36 -62 113 -132 184 -168 33 -16 113 -49 179 -72 149 -53
182 -70 220 -110 24 -25 30 -40 30 -74 0 -57 -18 -89 -69 -117 -34 -20 -54
-24 -121 -23 -101 1 -169 26 -250 93 l-60 48 -76 -80 -76 -81 60 -57 c275
-264 769 -181 838 140 27 128 -8 247 -100 334 -71 68 -118 92 -300 152 -193
65 -250 105 -251 178 0 46 28 87 73 108 56 25 158 25 212 0 47 -21 109 -82
126 -123 15 -36 25 -34 122 22 121 69 115 60 76 126 -103 172 -325 257 -545
209z"/>
<path d="M660 3735 c1 -466 7 -524 65 -642 83 -169 235 -253 455 -253 246 0
420 127 486 355 15 52 18 120 21 502 l5 442 -131 3 -130 3 -3 -435 c-3 -434
-3 -435 -27 -488 -42 -93 -121 -142 -228 -142 -109 0 -187 53 -224 149 -20 53
-21 81 -26 481 -3 234 -6 426 -7 426 0 1 -58 4 -129 5 l-127 4 0 -410z"/>
<path d="M2488 4140 c-1 -3 -2 -290 -2 -637 l-1 -633 108 0 107 0 0 48 0 47
26 -33 c97 -123 360 -116 504 14 143 129 184 438 85 634 -40 79 -115 153 -188
186 -54 24 -75 28 -157 29 -84 0 -101 -3 -152 -28 -32 -16 -67 -40 -78 -54
-11 -14 -20 -24 -20 -22 0 2 -1 104 -3 227 l-2 223 -113 2 c-61 1 -113 0 -114
-3z m509 -561 c81 -30 143 -140 143 -252 0 -164 -83 -267 -214 -267 -140 0
-216 92 -216 260 0 165 79 268 207 270 28 0 64 -5 80 -11z"/>
<path d="M7652 4143 c-36 -7 -88 -66 -95 -106 -18 -115 82 -195 186 -149 52
23 77 55 83 109 12 92 -78 167 -174 146z"/>
<path d="M8542 3919 l3 -227 -34 31 c-95 83 -259 99 -382 36 -88 -44 -169
-161 -200 -289 -20 -78 -17 -251 5 -325 51 -172 149 -268 305 -297 102 -19
200 4 274 63 l37 30 0 -36 0 -36 115 3 116 3 -1 629 c0 347 -1 631 -3 632 -1
1 -55 4 -120 6 l-119 3 4 -226z m-97 -352 c78 -44 122 -150 112 -272 -6 -80
-27 -138 -65 -178 -41 -44 -75 -57 -145 -57 -83 0 -141 34 -177 106 -22 43
-25 62 -25 154 0 91 3 111 23 149 44 82 103 120 187 120 34 1 63 -7 90 -22z"/>
<path d="M6350 3905 l0 -124 -55 -3 c-30 -2 -55 -6 -55 -10 0 -5 0 -53 0 -109
l0 -101 33 3 c83 5 75 32 79 -263 3 -252 4 -265 27 -316 27 -60 72 -104 128
-123 57 -21 238 -18 286 3 l37 17 0 96 0 97 -42 -7 c-59 -10 -124 -8 -149 5
-42 23 -49 65 -49 287 l0 208 112 0 113 0 0 109 0 108 -112 -1 -113 -2 0 125
0 126 -120 0 -120 0 0 -125z"/>
<path d="M2215 3786 c-60 -19 -95 -45 -126 -94 l-28 -44 -3 68 c-2 38 -6 68
-10 67 -5 -2 -55 -3 -113 -3 l-105 0 0 -455 0 -455 123 0 122 0 -3 182 c-7
378 38 484 211 497 l72 6 0 120 0 120 -50 2 c-27 1 -68 -4 -90 -11z"/>
<path d="M3730 3786 c-127 -28 -218 -115 -236 -222 -5 -36 -3 -43 12 -47 11
-3 54 -15 97 -28 42 -12 78 -20 80 -18 1 2 11 22 22 43 30 59 63 79 132 80 97
1 153 -52 153 -143 l0 -39 -158 -3 c-155 -4 -158 -4 -225 -37 -80 -40 -120
-88 -136 -163 -33 -154 25 -284 152 -340 41 -18 71 -23 142 -23 79 -1 97 2
147 27 31 15 63 39 72 52 24 36 36 31 36 -15 l0 -40 108 0 108 0 -3 263 c-2
144 -8 297 -13 341 -23 185 -117 288 -290 315 -81 13 -130 13 -200 -3z m260
-575 c0 -97 -50 -149 -151 -159 -85 -8 -139 35 -139 113 0 74 57 101 218 104
l72 1 0 -59z"/>
<path d="M4770 3791 c-52 -16 -109 -52 -133 -83 l-26 -32 -6 27 c-4 15 -4 38
-1 51 7 30 -2 32 -131 28 l-93 -3 0 -455 0 -455 118 3 117 3 1 267 c1 297 8
339 58 393 58 61 174 70 235 19 60 -50 65 -79 69 -396 l4 -288 109 0 109 0 0
238 c-1 377 -17 487 -85 576 -65 85 -239 139 -345 107z"/>
<path d="M7318 3786 c-56 -20 -86 -43 -116 -86 -15 -22 -30 -39 -34 -40 -5 0
-8 27 -8 60 l0 60 -113 0 -113 0 1 -452 2 -453 121 -3 122 -3 0 239 c0 267 7
310 61 376 41 49 82 66 159 66 l61 0 -3 123 -3 122 -50 2 c-27 2 -67 -4 -87
-11z"/>
<path d="M9213 3785 c-134 -37 -234 -152 -274 -315 -19 -76 -16 -240 5 -315
64 -220 256 -343 479 -306 122 20 204 72 273 176 39 58 41 55 -61 110 l-70 37
-51 -50 c-40 -38 -63 -52 -100 -60 -126 -27 -227 40 -260 172 l-6 26 287 0
288 0 -6 108 c-8 160 -56 275 -150 351 -80 66 -246 97 -354 66z m183 -204 c23
-10 50 -32 62 -48 22 -31 44 -108 34 -118 -3 -3 -79 -5 -169 -5 -191 0 -191 0
-147 87 47 93 131 125 220 84z"/>
<path d="M7564 3781 c-2 -2 -4 -208 -4 -458 l0 -453 115 0 115 0 0 133 c0 72
1 278 2 456 l1 324 -112 1 c-62 0 -115 -1 -117 -3z"/>
</g>
</svg>
